<svg width="58" height="58" viewBox="0 0 58 58" fill="none" xmlns="http://www.w3.org/2000/svg">
<path fill-rule="evenodd" clip-rule="evenodd" d="M21.5073 41.2486H6.52188C6.19287 41.2486 5.92578 40.9818 5.92578 40.6526L5.92581 12.413C5.92581 12.084 6.19277 11.8171 6.52185 11.8171L21.5073 11.8169C21.8364 11.8169 22.1034 12.084 22.1034 12.4132C22.1034 12.7422 21.8364 13.0092 21.5073 13.0092L7.11795 13.009V40.0564H21.5073C21.8364 40.0564 22.1034 40.3234 22.1034 40.6526C22.1034 40.9817 21.8364 41.2487 21.5073 41.2486Z" fill="#0F57D1"/>
<path fill-rule="evenodd" clip-rule="evenodd" d="M9.53647 18.0671H18.4919V16.0398H9.53647V18.0671ZM19.0879 19.2592H8.9404C8.61126 19.2592 8.34424 18.9925 8.34424 18.6633L8.34434 15.4437C8.34434 15.1145 8.61123 14.8477 8.9403 14.8477L19.0879 14.8477C19.417 14.8477 19.684 15.1146 19.684 15.4438L19.684 18.6632C19.684 18.9924 19.417 19.2593 19.0879 19.2592Z" fill="#0F57D1"/>
<path fill-rule="evenodd" clip-rule="evenodd" d="M9.53647 24.7771H18.4919V22.7495H9.53647V24.7771ZM19.0879 25.9692H8.9404C8.61126 25.9692 8.34424 25.7023 8.34424 25.3732L8.34434 22.1537C8.34434 21.8242 8.61123 21.5577 8.9403 21.5577L19.0879 21.5576C19.417 21.5576 19.684 21.8244 19.684 22.1537L19.684 25.3731C19.684 25.7023 19.417 25.9693 19.0879 25.9692Z" fill="#0F57D1"/>
<path fill-rule="evenodd" clip-rule="evenodd" d="M9.53647 37.0255H11.8989V29.459H9.53647V37.0255ZM12.495 38.2177H8.9404C8.61126 38.2177 8.34424 37.951 8.34424 37.6218L8.34434 28.8629C8.34434 28.5337 8.61123 28.2671 8.9403 28.2671H12.495C12.8241 28.2671 13.09 28.5339 13.09 28.8631L13.0901 37.6216C13.0901 37.9508 12.824 38.2178 12.495 38.2177Z" fill="#0F57D1"/>
<path fill-rule="evenodd" clip-rule="evenodd" d="M16.1305 37.0255H18.4919V29.459H16.1305V37.0255ZM19.0879 38.2177H15.5344C15.2053 38.2177 14.9382 37.951 14.9382 37.6218L14.9383 28.8629C14.9383 28.5337 15.2052 28.2671 15.5343 28.2671H19.0879C19.4171 28.2671 19.684 28.5339 19.684 28.8631L19.684 37.6216C19.684 37.9508 19.417 38.2178 19.0879 38.2177Z" fill="#0F57D1"/>
<path fill-rule="evenodd" clip-rule="evenodd" d="M22.1033 40.0565H35.8966V7.84057H22.1033V40.0565ZM36.4927 41.2486H21.5072C21.1782 41.2486 20.9111 40.9818 20.9111 40.6526V7.2445C20.9111 6.91526 21.1781 6.64847 21.5072 6.64847L36.4927 6.64844C36.8218 6.64844 37.0887 6.91533 37.0887 7.24454V40.6525C37.0887 40.9818 36.8217 41.2488 36.4927 41.2486Z" fill="#0F57D1"/>
<path fill-rule="evenodd" clip-rule="evenodd" d="M33.9203 7.84051C33.5901 7.84051 33.3241 7.57369 33.3241 7.24448L33.3242 4.1628H24.6761V7.24445C24.6761 7.57365 24.409 7.84051 24.08 7.84051C23.7508 7.84051 23.4839 7.57369 23.4839 7.24448L23.4839 3.56677C23.4839 3.23749 23.7508 2.97074 24.08 2.97074L33.9203 2.9707C34.2493 2.9707 34.5163 3.23756 34.5163 3.56677L34.5164 7.24445C34.5164 7.57365 34.2493 7.84051 33.9203 7.84051Z" fill="#0F57D1"/>
<path fill-rule="evenodd" clip-rule="evenodd" d="M51.478 41.2486H36.4926C36.1635 41.2486 35.8965 40.9818 35.8965 40.6526C35.8965 40.3233 36.1634 40.0566 36.4926 40.0566L50.8819 40.0564V13.009H36.4926C36.1635 13.009 35.8965 12.7423 35.8965 12.4132C35.8965 12.084 36.1634 11.8171 36.4926 11.8171L51.478 11.8169C51.8071 11.8169 52.074 12.084 52.074 12.4132V40.6525C52.074 40.9817 51.8071 41.2487 51.478 41.2486Z" fill="#0F57D1"/>
<path fill-rule="evenodd" clip-rule="evenodd" d="M39.741 17.8825H42.0683V15.8552H39.741V17.8825ZM42.6644 19.0747H39.1459C38.8158 19.0747 38.5498 18.808 38.5498 18.4788V15.2592C38.5498 14.9299 38.8157 14.6633 39.1459 14.6633L42.6644 14.6631C42.9934 14.6631 43.2604 14.9301 43.2604 15.2592L43.2604 18.4786C43.2604 18.8079 42.9933 19.0749 42.6644 19.0747Z" fill="#0F57D1"/>
<path fill-rule="evenodd" clip-rule="evenodd" d="M45.9039 17.8825H48.2301V15.8552H45.9039V17.8825ZM48.8262 19.0747H45.3078C44.9787 19.0747 44.7117 18.808 44.7117 18.4788L44.7117 15.2592C44.7117 14.9299 44.9787 14.6633 45.3077 14.6633L48.8262 14.6631C49.1553 14.6631 49.4222 14.9301 49.4222 15.2592L49.4223 18.4786C49.4223 18.8079 49.1552 19.0749 48.8262 19.0747Z" fill="#0F57D1"/>
<path fill-rule="evenodd" clip-rule="evenodd" d="M39.741 24.3252H42.0683V22.2979H39.741V24.3252ZM42.6644 25.5173H39.1459C38.8158 25.5173 38.5498 25.2506 38.5498 24.9214V21.7018C38.5498 21.3725 38.8157 21.106 39.1459 21.106H42.6644C42.9934 21.106 43.2604 21.3727 43.2604 21.7019L43.2604 24.9212C43.2604 25.2505 42.9933 25.5174 42.6644 25.5173Z" fill="#0F57D1"/>
<path fill-rule="evenodd" clip-rule="evenodd" d="M45.9039 24.3252H48.2301V22.2979H45.9039V24.3252ZM48.8262 25.5173H45.3078C44.9787 25.5173 44.7117 25.2506 44.7117 24.9214L44.7117 21.7018C44.7117 21.3725 44.9787 21.106 45.3077 21.106H48.8262C49.1553 21.106 49.4222 21.3727 49.4222 21.7019L49.4223 24.9212C49.4223 25.2505 49.1552 25.5174 48.8262 25.5173Z" fill="#0F57D1"/>
<path fill-rule="evenodd" clip-rule="evenodd" d="M39.741 30.7678H42.0683V28.7405H39.741V30.7678ZM42.6644 31.9599H39.1459C38.8158 31.9599 38.5498 31.6932 38.5498 31.364V28.1444C38.5498 27.8152 38.8157 27.5485 39.1459 27.5485L42.6644 27.5483C42.9934 27.5483 43.2604 27.8153 43.2604 28.1445L43.2604 31.3639C43.2604 31.6931 42.9933 31.9601 42.6644 31.9599Z" fill="#0F57D1"/>
<path fill-rule="evenodd" clip-rule="evenodd" d="M45.9039 30.7678H48.2301V28.7405H45.9039V30.7678ZM48.8262 31.9599H45.3078C44.9787 31.9599 44.7117 31.6932 44.7117 31.364L44.7117 28.1444C44.7117 27.8152 44.9787 27.5485 45.3077 27.5485L48.8262 27.5483C49.1553 27.5483 49.4222 27.8153 49.4222 28.1445L49.4223 31.3639C49.4223 31.6931 49.1552 31.9601 48.8262 31.9599Z" fill="#0F57D1"/>
<path fill-rule="evenodd" clip-rule="evenodd" d="M39.741 37.2102H42.0683V35.1829H39.741V37.2102ZM42.6644 38.4023H39.1459C38.8158 38.4023 38.5498 38.1356 38.5498 37.8063V34.5868C38.5498 34.2575 38.8157 33.9909 39.1459 33.9909L42.6644 33.9907C42.9934 33.9907 43.2604 34.2577 43.2604 34.587L43.2604 37.8062C43.2604 38.1355 42.9933 38.4024 42.6644 38.4023Z" fill="#0F57D1"/>
<path fill-rule="evenodd" clip-rule="evenodd" d="M45.9039 37.2102H48.2301V35.1829H45.9039V37.2102ZM48.8262 38.4023H45.3078C44.9787 38.4023 44.7117 38.1356 44.7117 37.8063L44.7117 34.5868C44.7117 34.2575 44.9787 33.9909 45.3077 33.9909L48.8262 33.9907C49.1553 33.9907 49.4222 34.2577 49.4222 34.587L49.4223 37.8062C49.4223 38.1355 49.1552 38.4024 48.8262 38.4023Z" fill="#0F57D1"/>
<path fill-rule="evenodd" clip-rule="evenodd" d="M31.0868 41.2486C30.7577 41.2486 30.4907 40.9818 30.4907 40.6526L30.4907 36.467H27.5093V40.6525C27.5093 40.9817 27.2423 41.2487 26.9132 41.2487C26.5841 41.2486 26.3171 40.9818 26.3171 40.6526L26.3172 35.871C26.3172 35.542 26.5841 35.2751 26.9132 35.2751L31.0868 35.2749C31.4159 35.2749 31.6828 35.542 31.6828 35.8711L31.6828 40.6525C31.6828 40.9817 31.4158 41.2487 31.0868 41.2486Z" fill="#0F57D1"/>
<path fill-rule="evenodd" clip-rule="evenodd" d="M24.7143 19.225C24.3852 19.225 24.1182 18.9582 24.1182 18.629L24.1182 10.031C24.1182 9.70172 24.3852 9.43506 24.7142 9.43506C25.0434 9.43489 25.3103 9.70188 25.3103 10.0311L25.3103 18.629C25.3103 18.9582 25.0433 19.2251 24.7143 19.225Z" fill="#0F57D1"/>
<path fill-rule="evenodd" clip-rule="evenodd" d="M27.5714 19.225C27.2425 19.225 26.9753 18.9582 26.9753 18.629L26.9754 10.031C26.9754 9.70172 27.2424 9.43506 27.5714 9.43506C27.9005 9.43489 28.1675 9.70188 28.1675 10.0311V18.629C28.1675 18.9582 27.9005 19.2251 27.5714 19.225Z" fill="#0F57D1"/>
<path fill-rule="evenodd" clip-rule="evenodd" d="M30.4286 19.225C30.0996 19.225 29.8325 18.9582 29.8325 18.629V10.031C29.8325 9.70172 30.0995 9.43506 30.4286 9.43506C30.7577 9.43489 31.0247 9.70188 31.0247 10.0311V18.629C31.0247 18.9582 30.7577 19.2251 30.4286 19.225Z" fill="#0F57D1"/>
<path fill-rule="evenodd" clip-rule="evenodd" d="M33.2858 19.225C32.9567 19.225 32.6897 18.9582 32.6897 18.629L32.6898 10.031C32.6898 9.70172 32.9567 9.43506 33.2858 9.43506C33.6148 9.43489 33.8818 9.70188 33.8818 10.0311L33.8819 18.629C33.8819 18.9582 33.6148 19.2251 33.2858 19.225Z" fill="#0F57D1"/>
<path fill-rule="evenodd" clip-rule="evenodd" d="M24.7754 32.4884H33.2249V29.456L24.7754 30.7627V32.4884ZM33.8209 33.6806H24.1793C23.8503 33.6806 23.5833 33.4139 23.5833 33.0846V30.2516C23.5833 29.9577 23.7975 29.7076 24.0882 29.6627L33.7299 28.1716C33.9017 28.1448 34.0765 28.195 34.2089 28.3083C34.3405 28.4214 34.417 28.5869 34.417 28.7608L34.417 33.0845C34.417 33.4137 34.15 33.6807 33.8209 33.6806Z" fill="#0F57D1"/>
<path fill-rule="evenodd" clip-rule="evenodd" d="M24.7754 25.2609H33.2249V23.5351L24.7754 22.2284V25.2609ZM33.8209 26.453H24.1793C23.8503 26.453 23.5833 26.1861 23.5833 25.857V21.5329C23.5833 21.359 23.6588 21.1938 23.7913 21.0806C23.9238 20.9674 24.0976 20.9173 24.2704 20.9441L33.912 22.435C34.2028 22.4799 34.417 22.73 34.417 23.0241L34.417 25.857C34.417 26.186 34.15 26.453 33.8209 26.453Z" fill="#0F57D1"/>
<path fill-rule="evenodd" clip-rule="evenodd" d="M16.5733 49.6172H41.427V41.2483H16.5733V49.6172ZM42.023 50.8093H15.9772C15.6482 50.8093 15.3811 50.5425 15.3811 50.2133L15.3811 40.6522C15.3811 40.323 15.6481 40.0563 15.9771 40.0563L42.023 40.0562C42.352 40.0562 42.619 40.3231 42.619 40.6523L42.6191 50.2133C42.6191 50.5425 42.352 50.8093 42.023 50.8093Z" fill="#0F57D1"/>
<path fill-rule="evenodd" clip-rule="evenodd" d="M21.6812 46.5826C21.7587 46.5826 21.8353 46.5978 21.9088 46.6279L22.5618 46.8975L22.507 46.1929C22.4945 46.0357 22.5452 45.8801 22.6476 45.7602L23.1062 45.222L22.419 45.0562C22.2659 45.0192 22.1333 44.9231 22.0505 44.7888L21.6812 44.1863L21.3106 44.7886C21.2279 44.923 21.0964 45.0193 20.9422 45.0563L20.2552 45.222L20.7146 45.76C20.8161 45.8799 20.8667 46.0357 20.8543 46.1929L20.8005 46.8975L21.4535 46.6278C21.5259 46.5978 21.6035 46.5828 21.6812 46.5826ZM23.2313 48.4151C23.1548 48.4151 23.0771 48.4002 23.0036 48.3699L21.6812 47.8237L20.3587 48.3697C20.1671 48.4488 19.9478 48.423 19.7801 48.3012C19.6126 48.1795 19.5204 47.9794 19.5359 47.7729L19.6467 46.3459L18.7185 45.2566C18.5849 45.099 18.5414 44.8829 18.6056 44.6859C18.6698 44.4887 18.8312 44.3392 19.033 44.2907L20.4239 43.9551L21.173 42.7355C21.2818 42.559 21.4741 42.4517 21.6811 42.4517C21.8881 42.4516 22.0805 42.5592 22.1892 42.7356L22.9374 43.9551L24.3293 44.2906C24.5301 44.339 24.6925 44.4889 24.7566 44.6859C24.8198 44.8827 24.7774 45.0991 24.6428 45.2567L23.7146 46.3459L23.8254 47.7727C23.8419 47.9794 23.7487 48.1795 23.5811 48.3012C23.4787 48.3762 23.3555 48.415 23.2313 48.4151Z" fill="#0F57D1"/>
<path fill-rule="evenodd" clip-rule="evenodd" d="M28.9997 46.5826C29.0773 46.5826 29.1548 46.5978 29.2273 46.6279L29.8813 46.8975L29.8265 46.1929C29.8141 46.0357 29.8647 45.8801 29.9672 45.7602L30.4257 45.222L29.7386 45.0562C29.5854 45.0192 29.4529 44.9231 29.3701 44.7888L28.9997 44.1863L28.6303 44.7886C28.5475 44.923 28.4149 45.0193 28.2618 45.0563L27.5747 45.222L28.0332 45.76C28.1356 45.8799 28.1863 46.0357 28.1739 46.1929L28.1191 46.8975L28.773 46.6278C28.8454 46.5978 28.923 46.5828 28.9997 46.5826ZM30.5509 48.4151C30.4733 48.4151 30.3967 48.4002 30.3232 48.3699L28.9997 47.8237L27.6772 48.3697C27.4858 48.4488 27.2673 48.423 27.0997 48.3012C26.9321 48.1795 26.8399 47.9794 26.8554 47.7729L26.9662 46.3459L26.038 45.2566C25.9034 45.099 25.861 44.8829 25.9251 44.6859C25.9893 44.4887 26.1507 44.3392 26.3515 44.2907L27.7434 43.9551L28.4926 42.7355C28.6002 42.559 28.7926 42.4517 28.9996 42.4517C29.2077 42.4516 29.3991 42.5592 29.5077 42.7356L30.257 43.9551L31.6479 44.2906C31.8496 44.339 32.011 44.4889 32.0751 44.6859C32.1394 44.8827 32.0969 45.0991 31.9623 45.2567L31.0342 46.3459L31.1449 47.7727C31.1604 47.9794 31.0682 48.1795 30.9006 48.3012C30.7972 48.3762 30.674 48.415 30.5509 48.4151Z" fill="#0F57D1"/>
<path fill-rule="evenodd" clip-rule="evenodd" d="M34.8939 45.222L35.3523 45.7601C35.4547 45.88 35.5044 46.0357 35.493 46.193L35.4382 46.8977L36.0911 46.6278C36.2371 46.5675 36.4005 46.5678 36.5464 46.628L37.1994 46.8975L37.1456 46.1927C37.1333 46.0357 37.1839 45.8801 37.2853 45.7602L37.7449 45.222L37.0567 45.0562C36.9035 45.0192 36.772 44.9231 36.6892 44.7889L36.3188 44.1863L35.9484 44.7887C35.8667 44.923 35.7341 45.0193 35.581 45.0563L34.8939 45.222ZM34.7686 48.4151C34.6445 48.4151 34.5212 48.3765 34.4178 48.3012C34.2502 48.1795 34.1581 47.9795 34.1746 47.7729L34.2853 46.3459L33.3571 45.2566C33.2225 45.099 33.1791 44.883 33.2433 44.6859C33.3074 44.4888 33.4688 44.3392 33.6706 44.2907L35.0615 43.9551L35.8108 42.7355C35.9194 42.559 36.1118 42.4517 36.3187 42.4517C36.5258 42.4517 36.7182 42.5592 36.8269 42.7356L37.5762 43.9551L38.967 44.2906C39.1688 44.3391 39.3301 44.4889 39.3943 44.6859C39.4586 44.8828 39.415 45.099 39.2815 45.2567L38.3534 46.3459L38.463 47.7727C38.4796 47.9794 38.3874 48.1795 38.2198 48.3012C38.0522 48.4228 37.8327 48.449 37.6413 48.3699L36.3188 47.8237L34.9963 48.37C34.9228 48.4002 34.8452 48.4152 34.7686 48.4151Z" fill="#0F57D1"/>
<path fill-rule="evenodd" clip-rule="evenodd" d="M7.76997 53.8374H18.3812V50.8096H15.9773C15.6483 50.8096 15.3812 50.5428 15.3812 50.2135L15.3812 45.4685H7.79592L10.3053 49.2228C10.4368 49.42 10.4388 49.6763 10.3115 49.8759L7.76997 53.8374ZM18.9773 55.0295H6.68029C6.462 55.0295 6.26117 54.9107 6.15668 54.7194C6.05221 54.528 6.06041 54.2951 6.17839 54.1117L9.0967 49.5609L6.18467 45.2037C6.06255 45.0208 6.05111 44.7856 6.15457 44.5917C6.25816 44.3975 6.45986 44.2765 6.68029 44.2765L15.9773 44.2764C16.3064 44.2764 16.5733 44.5433 16.5733 44.8726L16.5733 49.6174H18.9773C19.3064 49.6174 19.5733 49.8843 19.5733 50.2135L19.5733 54.4335C19.5733 54.7625 19.3063 55.0295 18.9773 55.0295Z" fill="#0F57D1"/>
<path fill-rule="evenodd" clip-rule="evenodd" d="M39.619 53.8374H50.2292L47.6885 49.8759C47.5613 49.6761 47.5634 49.42 47.6947 49.223L50.2042 45.4685H42.619V50.2135C42.619 50.5427 42.3519 50.8096 42.0228 50.8096H39.619V53.8374ZM51.3198 55.0295H39.0229C38.6927 55.0295 38.4268 54.7626 38.4268 54.4335L38.4269 50.2135C38.4269 49.8843 38.6927 49.6176 39.0228 49.6176L41.4268 49.6174V44.8724C41.4268 44.5432 41.6937 44.2765 42.0228 44.2765L51.3198 44.2764C51.5403 44.2764 51.742 44.3976 51.8455 44.5917C51.949 44.7856 51.9375 45.0209 51.8154 45.2037L48.9035 49.5609L51.8216 54.1117C51.9397 54.2949 51.9479 54.5282 51.8434 54.7194C51.7389 54.9106 51.5381 55.0295 51.3198 55.0295Z" fill="#0F57D1"/>
</svg>
