<svg width="40" height="40" viewBox="0 0 40 40" fill="none" xmlns="http://www.w3.org/2000/svg">
<path fill-rule="evenodd" clip-rule="evenodd" d="M38.75 22.9191C38.75 22.9412 38.7478 22.9597 38.7467 22.9816L28.9798 13.2144L38.6413 3.55038C38.7129 3.73745 38.7498 3.93602 38.7501 4.13632V22.9191H38.75ZM37.0859 24.5851C37.4865 24.5851 37.8735 24.4398 38.1751 24.176L28.0956 14.0954L25.0401 17.1509C24.5523 17.6371 23.8916 17.9102 23.2028 17.9102C22.5139 17.9102 21.8532 17.6371 21.3654 17.1509L18.2583 14.0475L9.39693 22.908C9.73137 23.4888 10.1005 24.0488 10.5023 24.5851H37.0859ZM17.5787 31.5547C17.8608 31.6589 18.169 31.67 18.4579 31.5865C18.7469 31.5029 19.0015 31.329 19.1845 31.0902L19.7506 30.3641C21.3845 31.4823 23.1058 32.4672 24.8978 33.3091C25.747 33.7075 26.6047 34.0647 27.4517 34.3743L27.4174 34.6102C27.3968 34.7634 27.3409 34.9098 27.2541 35.0377C26.7863 35.7412 26.1607 36.3258 25.4272 36.7449C24.6937 37.164 23.8724 37.406 23.0288 37.4518H23.028C23.0026 37.4555 22.9768 37.4555 22.951 37.4596C21.6475 37.5929 20.3314 37.5308 19.0463 37.2753C17.6871 37.0043 16.3644 36.575 15.1051 35.9963C12.5527 34.8463 10.0522 33.0845 7.87396 30.9062C5.69568 28.728 3.93459 26.2252 2.78123 23.6747C2.20408 22.4154 1.77612 21.093 1.50607 19.7344C1.24957 18.4499 1.18671 17.1343 1.31959 15.8312C1.32248 15.8053 1.32506 15.7759 1.32654 15.7501C1.37362 14.9069 1.61635 14.0862 2.0355 13.3531C2.45465 12.62 3.03872 11.9945 3.74146 11.5262C3.86932 11.4396 4.01559 11.3841 4.16865 11.364L4.40639 11.3271C4.71529 12.1748 5.07201 13.0337 5.46889 13.8814C6.31231 15.6735 7.29758 17.3953 8.41529 19.0304L7.69029 19.5943C7.45123 19.7773 7.27713 20.0321 7.19353 20.3214C7.10994 20.6106 7.12126 20.919 7.22584 21.2013C7.45551 21.8347 7.7307 22.4506 8.04928 23.0442C8.06266 23.0763 8.07895 23.1072 8.09795 23.1363C10.0945 26.8369 13.8138 30.2019 17.5785 31.5547H17.5787ZM7.55256 4.1364C7.55246 3.9094 7.59902 3.6848 7.68935 3.47656L17.375 13.1629L8.79685 21.7397C8.65084 21.4194 8.51818 21.0984 8.40248 20.7777C8.38769 20.7435 8.38538 20.7052 8.39597 20.6695C8.40655 20.6338 8.42935 20.6029 8.46037 20.5823L10.5745 18.9274C10.9917 18.6004 11.283 18.1392 11.399 17.6219C11.515 17.1047 11.4486 16.5632 11.211 16.0894L8.66193 11.0325C8.42533 10.5615 8.03349 10.1866 7.55256 9.97101V4.1364ZM9.21662 2.47046C8.9978 2.47126 8.78126 2.51508 8.57935 2.59945L22.25 16.27C22.5041 16.5202 22.8465 16.6605 23.2031 16.6605C23.5598 16.6605 23.9021 16.5202 24.1562 16.27L37.7929 2.63281C37.5724 2.52619 37.3308 2.47074 37.0859 2.47062L9.21662 2.47046ZM40 4.1364C39.9992 3.36365 39.692 2.62274 39.1457 2.0762C38.5994 1.52966 37.8587 1.2221 37.0859 1.22101H9.2167C8.44395 1.22213 7.7032 1.52968 7.15691 2.07622C6.61062 2.62276 6.3034 3.36365 6.30264 4.1364V9.79038C6.29616 9.78982 6.28966 9.79109 6.28389 9.79406L3.9892 10.1258C3.65315 10.1716 3.3321 10.2939 3.05076 10.4833C2.18604 11.0595 1.46731 11.829 0.951437 12.731C0.435569 13.633 0.136731 14.6428 0.0785738 15.6802L0.0770895 15.695C-0.0693293 17.1222 -0.00149584 18.5633 0.278339 19.9705C0.567525 21.4254 1.0253 22.8417 1.6424 24.1907C2.85693 26.8777 4.70607 29.5056 6.99014 31.7908C9.27381 34.072 11.9022 35.9226 14.5902 37.1388C15.9393 37.7551 17.3554 38.2128 18.8101 38.5026C19.7456 38.6839 20.6962 38.7765 21.6492 38.779C22.1293 38.7794 22.609 38.7535 23.0862 38.7016H23.0984C24.1357 38.6433 25.1452 38.3445 26.0471 37.8289C26.9491 37.3134 27.7188 36.5951 28.2954 35.7309C28.4841 35.4485 28.6067 35.1273 28.654 34.791L28.9869 32.4948C29.0561 32.0187 28.9738 31.533 28.7517 31.1063C28.5296 30.6796 28.1788 30.3337 27.7491 30.1174L22.6901 27.5705C22.2164 27.3319 21.6747 27.2646 21.157 27.3802C20.6394 27.4958 20.1777 27.7871 19.8505 28.2045L18.1993 30.3203C18.178 30.3513 18.1464 30.3739 18.1102 30.384C18.0739 30.3941 18.0353 30.3911 18.001 30.3756C15.6708 29.5427 13.3595 27.873 11.5292 25.8347H37.0859C37.8587 25.8336 38.5995 25.526 39.1458 24.9794C39.6921 24.4329 39.9993 23.6919 40 22.9191V4.1364Z" fill="white"/>
</svg>
