<svg width="40" height="40" viewBox="0 0 40 40" fill="none" xmlns="http://www.w3.org/2000/svg">
<g clip-path="url(#clip0_253_1596)">
<path d="M8.15089 26.5893C12.0962 31.3054 16.8455 35.0187 22.2661 37.6461C24.3299 38.6241 27.09 39.7845 30.165 39.9834C30.3556 39.9917 30.538 40 30.7286 40C32.7924 40 34.4501 39.2872 35.8011 37.8201C35.8094 37.8119 35.826 37.7953 35.8343 37.7787C36.315 37.1985 36.862 36.6763 37.4339 36.121C37.8235 35.748 38.2213 35.3585 38.6026 34.9606C40.368 33.1206 40.368 30.7833 38.586 29.0012L33.6047 24.0199C32.7593 23.1413 31.7481 22.6772 30.6872 22.6772C29.6262 22.6772 28.6068 23.1413 27.7365 24.0116L24.7692 26.9789C24.4957 26.8214 24.2139 26.6805 23.9487 26.5479C23.6171 26.3821 23.3104 26.2246 23.0369 26.0506C20.3349 24.3349 17.8815 22.097 15.5359 19.2209C14.3506 17.7207 13.555 16.4608 12.9996 15.1761C13.7787 14.4716 14.5081 13.7339 15.2126 13.0128C15.4613 12.7559 15.7182 12.499 15.9752 12.242C16.8703 11.3469 17.3511 10.3108 17.3511 9.25818C17.3511 8.20555 16.8786 7.1695 15.9752 6.27435L13.5052 3.80439C13.2151 3.5143 12.9416 3.23249 12.6598 2.9424C12.1128 2.37878 11.5409 1.79859 10.9772 1.27642C10.1235 0.439287 9.12064 0 8.05972 0C7.00709 0 5.9959 0.439287 5.10904 1.28471L2.00916 4.38458C0.881932 5.51181 0.243723 6.8794 0.111108 8.46249C-0.0463727 10.4434 0.318319 12.5487 1.2632 15.0932C2.71368 19.0303 4.90182 22.6855 8.15089 26.5893ZM2.13349 8.63655C2.23295 7.53419 2.65566 6.61417 3.45135 5.81848L6.53465 2.73518C7.01538 2.27103 7.54584 2.03067 8.05972 2.03067C8.56531 2.03067 9.0792 2.27103 9.55164 2.75176C10.107 3.26564 10.6291 3.80439 11.1927 4.3763C11.4746 4.66639 11.7647 4.95649 12.0547 5.25487L14.5247 7.72482C15.0386 8.23871 15.3038 8.76088 15.3038 9.27476C15.3038 9.78864 15.0386 10.3108 14.5247 10.8247C14.2678 11.0816 14.0108 11.3469 13.7539 11.6038C12.9831 12.3829 12.262 13.1206 11.4663 13.8251C11.4497 13.8417 11.4414 13.85 11.4248 13.8666C10.7369 14.5545 10.8446 15.2093 11.0104 15.7066C11.0187 15.7315 11.027 15.748 11.0353 15.7729C11.6735 17.3063 12.5603 18.765 13.9445 20.5056C16.431 23.5723 19.0502 25.9511 21.9346 27.7828C22.291 28.0149 22.6722 28.1973 23.0286 28.3796C23.3602 28.5454 23.6668 28.7029 23.9404 28.8769C23.9735 28.8935 23.9984 28.9101 24.0315 28.9266C24.3051 29.0676 24.5703 29.1339 24.8355 29.1339C25.4986 29.1339 25.9296 28.7111 26.0705 28.5702L29.1704 25.4704C29.6511 24.9896 30.1733 24.7327 30.6872 24.7327C31.3171 24.7327 31.831 25.1223 32.1542 25.4704L37.1521 30.46C38.1467 31.4546 38.1385 32.5321 37.1273 33.5848C36.7792 33.9577 36.4145 34.3141 36.0249 34.6871C35.4447 35.2507 34.8397 35.8309 34.2926 36.4857C33.3395 37.5135 32.2039 37.9942 30.7369 37.9942C30.596 37.9942 30.4468 37.9859 30.3059 37.9776C27.5873 37.8036 25.0593 36.7426 23.1612 35.8392C18.0058 33.3444 13.4804 29.8052 9.72569 25.3129C6.63411 21.5914 4.55371 18.1268 3.17783 14.4136C2.32412 12.1343 2.00087 10.3025 2.13349 8.63655Z" fill="black"/>
</g>
<defs>
<clipPath id="clip0_253_1596">
<rect width="40" height="40" fill="white"/>
</clipPath>
</defs>
</svg>
