<svg width="80" height="115" viewBox="0 0 80 115" fill="none" xmlns="http://www.w3.org/2000/svg">
<path fill-rule="evenodd" clip-rule="evenodd" d="M10 20.2036C10.789 20.2036 11.563 19.8753 12.121 19.3004C12.6805 18.727 13 17.9332 13 17.1209C13 16.3086 12.6805 15.5148 12.121 14.9414C11.563 14.3665 10.789 14.0382 10 14.0382C9.2095 14.0382 8.437 14.3665 7.8775 14.9414C7.3195 15.5148 7 16.3086 7 17.1209C7 17.9332 7.3195 18.727 7.8775 19.3004C8.437 19.8753 9.2095 20.2036 10 20.2036Z" fill="black"/>
<path fill-rule="evenodd" clip-rule="evenodd" d="M27 20.2036C27.7905 20.2036 28.563 19.8753 29.1225 19.3004C29.6805 18.727 30 17.9332 30 17.1209C30 16.3086 29.6805 15.5148 29.1225 14.9414C28.563 14.3665 27.7905 14.0382 27 14.0382C26.211 14.0382 25.437 14.3665 24.879 14.9414C24.3195 15.5148 24 16.3086 24 17.1209C24 17.9332 24.3195 18.727 24.879 19.3004C25.437 19.8753 26.211 20.2036 27 20.2036Z" fill="black"/>
<path fill-rule="evenodd" clip-rule="evenodd" d="M59.9925 20.2036H60.0075C61.6608 20.2036 63 18.8226 63 17.1209C63 15.4193 61.6608 14.0382 60.0075 14.0382H59.9925C58.3406 14.0382 57 15.4193 57 17.1209C57 18.8226 58.3406 20.2036 59.9925 20.2036Z" fill="black"/>
<path fill-rule="evenodd" clip-rule="evenodd" d="M42.9925 20.2036H43.0075C44.6594 20.2036 46 18.8226 46 17.1209C46 15.4193 44.6594 14.0382 43.0075 14.0382H42.9925C41.3406 14.0382 40 15.4193 40 17.1209C40 18.8226 41.3406 20.2036 42.9925 20.2036Z" fill="black"/>
<mask id="mask0_253_1239" style="mask-type:luminance" maskUnits="userSpaceOnUse" x="73" y="13" width="7" height="8">
<path fill-rule="evenodd" clip-rule="evenodd" d="M73.3008 13.8202H79.7005V20.3966H73.3008V13.8202Z" fill="white"/>
</mask>
<g mask="url(#mask0_253_1239)">
<path fill-rule="evenodd" clip-rule="evenodd" d="M76.5008 20.3966C77.3424 20.3966 78.168 20.0464 78.7632 19.4332C79.36 18.8216 79.7008 17.9749 79.7008 17.1084C79.7008 16.242 79.36 15.3952 78.7632 14.7836C78.168 14.1704 77.3424 13.8202 76.5008 13.8202C75.6576 13.8202 74.8336 14.1704 74.2368 14.7836C73.6416 15.3952 73.3008 16.242 73.3008 17.1084C73.3008 17.9749 73.6416 18.8216 74.2368 19.4332C74.8336 20.0464 75.6576 20.3966 76.5008 20.3966Z" fill="black"/>
</g>
<path fill-rule="evenodd" clip-rule="evenodd" d="M10 6.84522C10.789 6.84522 11.563 6.51691 12.121 5.94199C12.6805 5.3686 13 4.57327 13 3.76252C13 2.95022 12.6805 2.15643 12.121 1.5815C11.563 1.00812 10.789 0.67981 10 0.67981C9.2095 0.67981 8.437 1.00812 7.8775 1.5815C7.3195 2.15643 7 2.95022 7 3.76252C7 4.57327 7.3195 5.3686 7.8775 5.94199C8.437 6.51691 9.2095 6.84522 10 6.84522Z" fill="black"/>
<path fill-rule="evenodd" clip-rule="evenodd" d="M27 6.84522C27.7905 6.84522 28.563 6.51691 29.1225 5.94199C29.6805 5.3686 30 4.57327 30 3.76252C30 2.95022 29.6805 2.15643 29.1225 1.5815C28.563 1.00812 27.7905 0.67981 27 0.67981C26.211 0.67981 25.437 1.00812 24.879 1.5815C24.3195 2.15643 24 2.95022 24 3.76252C24 4.57327 24.3195 5.3686 24.879 5.94199C25.437 6.51691 26.211 6.84522 27 6.84522Z" fill="black"/>
<path fill-rule="evenodd" clip-rule="evenodd" d="M59.9925 6.84522H60.0075C61.6608 6.84522 63 5.46417 63 3.76252C63 2.06086 61.6608 0.67981 60.0075 0.67981H59.9925C58.3406 0.67981 57 2.06086 57 3.76252C57 5.46417 58.3406 6.84522 59.9925 6.84522Z" fill="black"/>
<path fill-rule="evenodd" clip-rule="evenodd" d="M42.9925 6.84522H43.0075C44.6594 6.84522 46 5.46417 46 3.76252C46 2.06086 44.6594 0.67981 43.0075 0.67981H42.9925C41.3406 0.67981 40 2.06086 40 3.76252C40 5.46417 41.3406 6.84522 42.9925 6.84522Z" fill="black"/>
<mask id="mask1_253_1239" style="mask-type:luminance" maskUnits="userSpaceOnUse" x="73" y="0" width="7" height="7">
<path fill-rule="evenodd" clip-rule="evenodd" d="M73.3008 0.107666H79.7005V6.6841H73.3008V0.107666Z" fill="white"/>
</mask>
<g mask="url(#mask1_253_1239)">
<path fill-rule="evenodd" clip-rule="evenodd" d="M76.5008 6.6841C77.3424 6.6841 78.168 6.33391 78.7632 5.72066C79.36 5.10905 79.7008 4.26069 79.7008 3.39589C79.7008 2.52944 79.36 1.68272 78.7632 1.06947C78.168 0.457861 77.3424 0.107666 76.5008 0.107666C75.6576 0.107666 74.8336 0.457861 74.2368 1.06947C73.6416 1.68272 73.3008 2.52944 73.3008 3.39589C73.3008 4.26069 73.6416 5.10905 74.2368 5.72066C74.8336 6.33391 75.6576 6.6841 76.5008 6.6841Z" fill="black"/>
</g>
<path fill-rule="evenodd" clip-rule="evenodd" d="M10 33.562C10.789 33.562 11.563 33.2337 12.121 32.6588C12.6805 32.0854 13 31.2916 13 30.4793C13 29.6686 12.6805 28.8732 12.121 28.2998C11.563 27.7249 10.789 27.3966 10 27.3966C9.2095 27.3966 8.437 27.7249 7.8775 28.2998C7.3195 28.8732 7 29.6686 7 30.4793C7 31.2916 7.3195 32.0854 7.8775 32.6588C8.437 33.2337 9.2095 33.562 10 33.562Z" fill="black"/>
<path fill-rule="evenodd" clip-rule="evenodd" d="M27 33.562C27.7905 33.562 28.563 33.2337 29.1225 32.6588C29.6805 32.0854 30 31.2916 30 30.4793C30 29.6686 29.6805 28.8732 29.1225 28.2998C28.563 27.7249 27.7905 27.3966 27 27.3966C26.211 27.3966 25.437 27.7249 24.879 28.2998C24.3195 28.8732 24 29.6686 24 30.4793C24 31.2916 24.3195 32.0854 24.879 32.6588C25.437 33.2337 26.211 33.562 27 33.562Z" fill="black"/>
<path fill-rule="evenodd" clip-rule="evenodd" d="M59.9925 33.562H60.0075C61.6608 33.562 63 32.181 63 30.4793C63 28.7777 61.6608 27.3966 60.0075 27.3966H59.9925C58.3406 27.3966 57 28.7777 57 30.4793C57 32.181 58.3406 33.562 59.9925 33.562Z" fill="black"/>
<path fill-rule="evenodd" clip-rule="evenodd" d="M42.9925 33.562H43.0075C44.6594 33.562 46 32.181 46 30.4793C46 28.7777 44.6594 27.3966 43.0075 27.3966H42.9925C41.3406 27.3966 40 28.7777 40 30.4793C40 32.181 41.3406 33.562 42.9925 33.562Z" fill="black"/>
<mask id="mask2_253_1239" style="mask-type:luminance" maskUnits="userSpaceOnUse" x="73" y="27" width="7" height="8">
<path fill-rule="evenodd" clip-rule="evenodd" d="M73.3008 27.5326H79.7005V34.109H73.3008V27.5326Z" fill="white"/>
</mask>
<g mask="url(#mask2_253_1239)">
<path fill-rule="evenodd" clip-rule="evenodd" d="M76.5008 34.109C77.3424 34.109 78.168 33.7588 78.7632 33.1456C79.36 32.5339 79.7008 31.6872 79.7008 30.8208C79.7008 29.956 79.36 29.1076 78.7632 28.496C78.168 27.8828 77.3424 27.5326 76.5008 27.5326C75.6576 27.5326 74.8336 27.8828 74.2368 28.496C73.6416 29.1076 73.3008 29.956 73.3008 30.8208C73.3008 31.6872 73.6416 32.5339 74.2368 33.1456C74.8336 33.7588 75.6576 34.109 76.5008 34.109Z" fill="black"/>
</g>
<path fill-rule="evenodd" clip-rule="evenodd" d="M10 46.9204C10.789 46.9204 11.563 46.5921 12.121 46.0172C12.6805 45.4438 13 44.65 13 43.8377C13 43.0254 12.6805 42.2316 12.121 41.6582C11.563 41.0833 10.789 40.755 10 40.755C9.2095 40.755 8.437 41.0833 7.8775 41.6582C7.3195 42.2316 7 43.0254 7 43.8377C7 44.65 7.3195 45.4438 7.8775 46.0172C8.437 46.5921 9.2095 46.9204 10 46.9204Z" fill="black"/>
<path fill-rule="evenodd" clip-rule="evenodd" d="M27 46.9204C27.7905 46.9204 28.563 46.5921 29.1225 46.0172C29.6805 45.4438 30 44.65 30 43.8377C30 43.0254 29.6805 42.2316 29.1225 41.6582C28.563 41.0833 27.7905 40.755 27 40.755C26.211 40.755 25.437 41.0833 24.879 41.6582C24.3195 42.2316 24 43.0254 24 43.8377C24 44.65 24.3195 45.4438 24.879 46.0172C25.437 46.5921 26.211 46.9204 27 46.9204Z" fill="black"/>
<path fill-rule="evenodd" clip-rule="evenodd" d="M59.9925 46.9204H60.0075C61.6608 46.9204 63 45.5393 63 43.8377C63 42.136 61.6608 40.755 60.0075 40.755H59.9925C58.3406 40.755 57 42.136 57 43.8377C57 45.5393 58.3406 46.9204 59.9925 46.9204Z" fill="black"/>
<path fill-rule="evenodd" clip-rule="evenodd" d="M42.9925 46.9204H43.0075C44.6594 46.9204 46 45.5393 46 43.8377C46 42.136 44.6594 40.755 43.0075 40.755H42.9925C41.3406 40.755 40 42.136 40 43.8377C40 45.5393 41.3406 46.9204 42.9925 46.9204Z" fill="black"/>
<mask id="mask3_253_1239" style="mask-type:luminance" maskUnits="userSpaceOnUse" x="73" y="41" width="7" height="7">
<path fill-rule="evenodd" clip-rule="evenodd" d="M73.3008 41.2449H79.7005V47.8214H73.3008V41.2449Z" fill="white"/>
</mask>
<g mask="url(#mask3_253_1239)">
<path fill-rule="evenodd" clip-rule="evenodd" d="M76.5008 47.8214C77.3424 47.8214 78.168 47.4712 78.7632 46.8579C79.36 46.2463 79.7008 45.3996 79.7008 44.5332C79.7008 43.6667 79.36 42.82 78.7632 42.2084C78.168 41.5951 77.3424 41.2449 76.5008 41.2449C75.6576 41.2449 74.8336 41.5951 74.2368 42.2084C73.6416 42.82 73.3008 43.6667 73.3008 44.5332C73.3008 45.3996 73.6416 46.2463 74.2368 46.8579C74.8336 47.4712 75.6576 47.8214 76.5008 47.8214Z" fill="black"/>
</g>
<path fill-rule="evenodd" clip-rule="evenodd" d="M10 61.3063C10.789 61.3063 11.563 60.978 12.121 60.4031C12.6805 59.8297 13 59.0359 13 58.2236C13 57.4129 12.6805 56.6175 12.121 56.0442C11.563 55.4692 10.789 55.1409 10 55.1409C9.2095 55.1409 8.437 55.4692 7.8775 56.0442C7.3195 56.6175 7 57.4129 7 58.2236C7 59.0359 7.3195 59.8297 7.8775 60.4031C8.437 60.978 9.2095 61.3063 10 61.3063Z" fill="black"/>
<path fill-rule="evenodd" clip-rule="evenodd" d="M27 61.3063C27.7905 61.3063 28.563 60.978 29.1225 60.4031C29.6805 59.8297 30 59.0359 30 58.2236C30 57.4129 29.6805 56.6175 29.1225 56.0442C28.563 55.4692 27.7905 55.1409 27 55.1409C26.211 55.1409 25.437 55.4692 24.879 56.0442C24.3195 56.6175 24 57.4129 24 58.2236C24 59.0359 24.3195 59.8297 24.879 60.4031C25.437 60.978 26.211 61.3063 27 61.3063Z" fill="black"/>
<path fill-rule="evenodd" clip-rule="evenodd" d="M59.9925 61.3063H60.0075C61.6608 61.3063 63 59.9253 63 58.2236C63 56.522 61.6608 55.1409 60.0075 55.1409H59.9925C58.3406 55.1409 57 56.522 57 58.2236C57 59.9253 58.3406 61.3063 59.9925 61.3063Z" fill="black"/>
<path fill-rule="evenodd" clip-rule="evenodd" d="M42.9925 61.3063H43.0075C44.6594 61.3063 46 59.9253 46 58.2236C46 56.522 44.6594 55.1409 43.0075 55.1409H42.9925C41.3406 55.1409 40 56.522 40 58.2236C40 59.9253 41.3406 61.3063 42.9925 61.3063Z" fill="black"/>
<mask id="mask4_253_1239" style="mask-type:luminance" maskUnits="userSpaceOnUse" x="73" y="54" width="7" height="7">
<path fill-rule="evenodd" clip-rule="evenodd" d="M73.3008 54.3409H79.7005V60.9174H73.3008V54.3409Z" fill="white"/>
</mask>
<g mask="url(#mask4_253_1239)">
<path fill-rule="evenodd" clip-rule="evenodd" d="M76.5008 60.9174C77.3424 60.9174 78.168 60.5672 78.7632 59.9539C79.36 59.3423 79.7008 58.4956 79.7008 57.6291C79.7008 56.7643 79.36 55.916 78.7632 55.3044C78.168 54.6911 77.3424 54.3409 76.5008 54.3409C75.6576 54.3409 74.8336 54.6911 74.2368 55.3044C73.6416 55.916 73.3008 56.7643 73.3008 57.6291C73.3008 58.4956 73.6416 59.3423 74.2368 59.9539C74.8336 60.5672 75.6576 60.9174 76.5008 60.9174Z" fill="black"/>
</g>
<path fill-rule="evenodd" clip-rule="evenodd" d="M10 74.6647C10.789 74.6647 11.563 74.3364 12.121 73.763C12.6805 73.1881 13 72.3943 13 71.582C13 70.7713 12.6805 69.9759 12.121 69.4026C11.563 68.8276 10.789 68.4993 10 68.4993C9.2095 68.4993 8.437 68.8276 7.8775 69.4026C7.3195 69.9759 7 70.7713 7 71.582C7 72.3943 7.3195 73.1881 7.8775 73.763C8.437 74.3364 9.2095 74.6647 10 74.6647Z" fill="black"/>
<path fill-rule="evenodd" clip-rule="evenodd" d="M27 74.6647C27.7905 74.6647 28.563 74.3364 29.1225 73.763C29.6805 73.1881 30 72.3943 30 71.582C30 70.7713 29.6805 69.9759 29.1225 69.4026C28.563 68.8276 27.7905 68.4993 27 68.4993C26.211 68.4993 25.437 68.8276 24.879 69.4026C24.3195 69.9759 24 70.7713 24 71.582C24 72.3943 24.3195 73.1881 24.879 73.763C25.437 74.3364 26.211 74.6647 27 74.6647Z" fill="black"/>
<path fill-rule="evenodd" clip-rule="evenodd" d="M59.9925 74.6647H60.0075C61.6608 74.6647 63 73.2837 63 71.582C63 69.8804 61.6608 68.4993 60.0075 68.4993H59.9925C58.3406 68.4993 57 69.8804 57 71.582C57 73.2837 58.3406 74.6647 59.9925 74.6647Z" fill="black"/>
<path fill-rule="evenodd" clip-rule="evenodd" d="M42.9925 74.6647H43.0075C44.6594 74.6647 46 73.2837 46 71.582C46 69.8804 44.6594 68.4993 43.0075 68.4993H42.9925C41.3406 68.4993 40 69.8804 40 71.582C40 73.2837 41.3406 74.6647 42.9925 74.6647Z" fill="black"/>
<mask id="mask5_253_1239" style="mask-type:luminance" maskUnits="userSpaceOnUse" x="73" y="68" width="7" height="7">
<path fill-rule="evenodd" clip-rule="evenodd" d="M73.3008 68.0533H79.7005V74.6297H73.3008V68.0533Z" fill="white"/>
</mask>
<g mask="url(#mask5_253_1239)">
<path fill-rule="evenodd" clip-rule="evenodd" d="M76.5008 74.6297C77.3424 74.6297 78.168 74.2795 78.7632 73.6679C79.36 73.0547 79.7008 72.2079 79.7008 71.3415C79.7008 70.4767 79.36 69.6283 78.7632 69.0167C78.168 68.4035 77.3424 68.0533 76.5008 68.0533C75.6576 68.0533 74.8336 68.4035 74.2368 69.0167C73.6416 69.6283 73.3008 70.4767 73.3008 71.3415C73.3008 72.2079 73.6416 73.0547 74.2368 73.6679C74.8336 74.2795 75.6576 74.6297 76.5008 74.6297Z" fill="black"/>
</g>
<path fill-rule="evenodd" clip-rule="evenodd" d="M10 88.0231C10.789 88.0231 11.563 87.6948 12.121 87.1199C12.6805 86.5465 13 85.7527 13 84.9404C13 84.1297 12.6805 83.3343 12.121 82.761C11.563 82.186 10.789 81.8577 10 81.8577C9.2095 81.8577 8.437 82.186 7.8775 82.761C7.3195 83.3343 7 84.1297 7 84.9404C7 85.7527 7.3195 86.5465 7.8775 87.1199C8.437 87.6948 9.2095 88.0231 10 88.0231Z" fill="black"/>
<path fill-rule="evenodd" clip-rule="evenodd" d="M27 88.0231C27.7905 88.0231 28.563 87.6948 29.1225 87.1199C29.6805 86.5465 30 85.7527 30 84.9404C30 84.1297 29.6805 83.3343 29.1225 82.761C28.563 82.186 27.7905 81.8577 27 81.8577C26.211 81.8577 25.437 82.186 24.879 82.761C24.3195 83.3343 24 84.1297 24 84.9404C24 85.7527 24.3195 86.5465 24.879 87.1199C25.437 87.6948 26.211 88.0231 27 88.0231Z" fill="black"/>
<path fill-rule="evenodd" clip-rule="evenodd" d="M59.9925 88.0231H60.0075C61.6608 88.0231 63 86.6421 63 84.9404C63 83.2388 61.6608 81.8577 60.0075 81.8577H59.9925C58.3406 81.8577 57 83.2388 57 84.9404C57 86.6421 58.3406 88.0231 59.9925 88.0231Z" fill="black"/>
<path fill-rule="evenodd" clip-rule="evenodd" d="M42.9925 88.0231H43.0075C44.6594 88.0231 46 86.6421 46 84.9404C46 83.2388 44.6594 81.8577 43.0075 81.8577H42.9925C41.3406 81.8577 40 83.2388 40 84.9404C40 86.6421 41.3406 88.0231 42.9925 88.0231Z" fill="black"/>
<mask id="mask6_253_1239" style="mask-type:luminance" maskUnits="userSpaceOnUse" x="73" y="81" width="7" height="8">
<path fill-rule="evenodd" clip-rule="evenodd" d="M73.3008 81.7657H79.7005V88.3421H73.3008V81.7657Z" fill="white"/>
</mask>
<g mask="url(#mask6_253_1239)">
<path fill-rule="evenodd" clip-rule="evenodd" d="M76.5008 88.3421C77.3424 88.3421 78.168 87.9919 78.7632 87.3786C79.36 86.767 79.7008 85.9203 79.7008 85.0539C79.7008 84.1891 79.36 83.3407 78.7632 82.7291C78.168 82.1159 77.3424 81.7657 76.5008 81.7657C75.6576 81.7657 74.8336 82.1159 74.2368 82.7291C73.6416 83.3407 73.3008 84.1891 73.3008 85.0539C73.3008 85.9203 73.6416 86.767 74.2368 87.3786C74.8336 87.9919 75.6576 88.3421 76.5008 88.3421Z" fill="black"/>
</g>
<path fill-rule="evenodd" clip-rule="evenodd" d="M10 101.382C10.789 101.382 11.563 101.053 12.121 100.48C12.6805 99.9049 13 99.1111 13 98.2988C13 97.4881 12.6805 96.6927 12.121 96.1193C11.563 95.5444 10.789 95.2161 10 95.2161C9.2095 95.2161 8.437 95.5444 7.8775 96.1193C7.3195 96.6927 7 97.4881 7 98.2988C7 99.1111 7.3195 99.9049 7.8775 100.48C8.437 101.053 9.2095 101.382 10 101.382Z" fill="black"/>
<path fill-rule="evenodd" clip-rule="evenodd" d="M27 101.382C27.7905 101.382 28.563 101.053 29.1225 100.48C29.6805 99.9049 30 99.1111 30 98.2988C30 97.4881 29.6805 96.6927 29.1225 96.1193C28.563 95.5444 27.7905 95.2161 27 95.2161C26.211 95.2161 25.437 95.5444 24.879 96.1193C24.3195 96.6927 24 97.4881 24 98.2988C24 99.1111 24.3195 99.9049 24.879 100.48C25.437 101.053 26.211 101.382 27 101.382Z" fill="black"/>
<path fill-rule="evenodd" clip-rule="evenodd" d="M59.9925 101.382H60.0075C61.6608 101.382 63 100.002 63 98.2988C63 96.5972 61.6608 95.2161 60.0075 95.2161H59.9925C58.3406 95.2161 57 96.5972 57 98.2988C57 100.002 58.3406 101.382 59.9925 101.382Z" fill="black"/>
<path fill-rule="evenodd" clip-rule="evenodd" d="M42.9925 101.382H43.0075C44.6594 101.382 46 100.002 46 98.2988C46 96.5972 44.6594 95.2161 43.0075 95.2161H42.9925C41.3406 95.2161 40 96.5972 40 98.2988C40 100.002 41.3406 101.382 42.9925 101.382Z" fill="black"/>
<mask id="mask7_253_1239" style="mask-type:luminance" maskUnits="userSpaceOnUse" x="73" y="95" width="7" height="8">
<path fill-rule="evenodd" clip-rule="evenodd" d="M73.3008 95.4782H79.7005V102.055H73.3008V95.4782Z" fill="white"/>
</mask>
<g mask="url(#mask7_253_1239)">
<path fill-rule="evenodd" clip-rule="evenodd" d="M76.5008 102.055C77.3424 102.055 78.168 101.704 78.7632 101.093C79.36 100.48 79.7008 99.6328 79.7008 98.7664C79.7008 97.9016 79.36 97.0532 78.7632 96.4416C78.168 95.8284 77.3424 95.4782 76.5008 95.4782C75.6576 95.4782 74.8336 95.8284 74.2368 96.4416C73.6416 97.0532 73.3008 97.9016 73.3008 98.7664C73.3008 99.6328 73.6416 100.48 74.2368 101.093C74.8336 101.704 75.6576 102.055 76.5008 102.055Z" fill="black"/>
</g>
<mask id="mask8_253_1239" style="mask-type:luminance" maskUnits="userSpaceOnUse" x="6" y="108" width="7" height="7">
<path fill-rule="evenodd" clip-rule="evenodd" d="M6.5 108.575H12.9V114.74H6.5V108.575Z" fill="white"/>
</mask>
<g mask="url(#mask8_253_1239)">
<path fill-rule="evenodd" clip-rule="evenodd" d="M9.7 114.74C10.5416 114.74 11.3672 114.412 11.9624 113.837C12.5592 113.264 12.9 112.468 12.9 111.658C12.9 110.845 12.5592 110.051 11.9624 109.476C11.3672 108.903 10.5416 108.575 9.7 108.575C8.8568 108.575 8.0328 108.903 7.436 109.476C6.8408 110.051 6.5 110.845 6.5 111.658C6.5 112.468 6.8408 113.264 7.436 113.837C8.0328 114.412 8.8568 114.74 9.7 114.74Z" fill="black"/>
</g>
<mask id="mask9_253_1239" style="mask-type:luminance" maskUnits="userSpaceOnUse" x="23" y="108" width="7" height="7">
<path fill-rule="evenodd" clip-rule="evenodd" d="M23.4023 108.575H29.8023V114.74H23.4023V108.575Z" fill="white"/>
</mask>
<g mask="url(#mask9_253_1239)">
<path fill-rule="evenodd" clip-rule="evenodd" d="M26.6023 114.74C27.4455 114.74 28.2695 114.412 28.8663 113.837C29.4615 113.264 29.8023 112.468 29.8023 111.658C29.8023 110.845 29.4615 110.051 28.8663 109.476C28.2695 108.903 27.4455 108.575 26.6023 108.575C25.7607 108.575 24.9351 108.903 24.3399 109.476C23.7431 110.051 23.4023 110.845 23.4023 111.658C23.4023 112.468 23.7431 113.264 24.3399 113.837C24.9351 114.412 25.7607 114.74 26.6023 114.74Z" fill="black"/>
</g>
<mask id="mask10_253_1239" style="mask-type:luminance" maskUnits="userSpaceOnUse" x="56" y="108" width="7" height="7">
<path fill-rule="evenodd" clip-rule="evenodd" d="M56.3945 108.575H62.8105V114.74H56.3945V108.575Z" fill="white"/>
</mask>
<g mask="url(#mask10_253_1239)">
<path fill-rule="evenodd" clip-rule="evenodd" d="M59.5945 114.74H59.6105C61.3785 114.74 62.8105 113.359 62.8105 111.658C62.8105 109.954 61.3785 108.575 59.6105 108.575H59.5945C57.8281 108.575 56.3945 109.954 56.3945 111.658C56.3945 113.359 57.8281 114.74 59.5945 114.74Z" fill="black"/>
</g>
<mask id="mask11_253_1239" style="mask-type:luminance" maskUnits="userSpaceOnUse" x="39" y="108" width="8" height="7">
<path fill-rule="evenodd" clip-rule="evenodd" d="M39.8945 108.575H46.3105V114.74H39.8945V108.575Z" fill="white"/>
</mask>
<g mask="url(#mask11_253_1239)">
<path fill-rule="evenodd" clip-rule="evenodd" d="M43.0945 114.74H43.1105C44.8769 114.74 46.3105 113.359 46.3105 111.658C46.3105 109.954 44.8769 108.575 43.1105 108.575H43.0945C41.3281 108.575 39.8945 109.954 39.8945 111.658C39.8945 113.359 41.3281 114.74 43.0945 114.74Z" fill="black"/>
</g>
<mask id="mask12_253_1239" style="mask-type:luminance" maskUnits="userSpaceOnUse" x="73" y="108" width="7" height="7">
<path fill-rule="evenodd" clip-rule="evenodd" d="M73.3008 108.575H79.7005V114.74H73.3008V108.575Z" fill="white"/>
</mask>
<g mask="url(#mask12_253_1239)">
<path fill-rule="evenodd" clip-rule="evenodd" d="M76.5008 114.74C77.3424 114.74 78.168 114.412 78.7632 113.837C79.36 113.264 79.7008 112.468 79.7008 111.658C79.7008 110.845 79.36 110.051 78.7632 109.476C78.168 108.903 77.3424 108.575 76.5008 108.575C75.6576 108.575 74.8336 108.903 74.2368 109.476C73.6416 110.051 73.3008 110.845 73.3008 111.658C73.3008 112.468 73.6416 113.264 74.2368 113.837C74.8336 114.412 75.6576 114.74 76.5008 114.74Z" fill="black"/>
</g>
</svg>
