<svg width="14" height="14" viewBox="0 0 14 14" fill="none" xmlns="http://www.w3.org/2000/svg">
<path d="M6.99992 1.16669C4.43325 1.16669 2.33325 3.26669 2.33325 5.83335C2.33325 8.98335 6.41659 12.5417 6.59159 12.7167C6.70825 12.775 6.88325 12.8334 6.99992 12.8334C7.11659 12.8334 7.29158 12.775 7.40825 12.7167C7.58325 12.5417 11.6666 8.98335 11.6666 5.83335C11.6666 3.26669 9.56659 1.16669 6.99992 1.16669ZM6.99992 11.4917C5.77492 10.325 3.49992 7.81669 3.49992 5.83335C3.49992 3.90835 5.07492 2.33335 6.99992 2.33335C8.92492 2.33335 10.4999 3.90835 10.4999 5.83335C10.4999 7.75835 8.22492 10.325 6.99992 11.4917ZM6.99992 3.50002C5.71659 3.50002 4.66659 4.55002 4.66659 5.83335C4.66659 7.11669 5.71659 8.16669 6.99992 8.16669C8.28325 8.16669 9.33325 7.11669 9.33325 5.83335C9.33325 4.55002 8.28325 3.50002 6.99992 3.50002ZM6.99992 7.00002C6.35825 7.00002 5.83325 6.47502 5.83325 5.83335C5.83325 5.19169 6.35825 4.66669 6.99992 4.66669C7.64159 4.66669 8.16658 5.19169 8.16658 5.83335C8.16658 6.47502 7.64159 7.00002 6.99992 7.00002Z" fill="#ED0707"/>
</svg>
