<svg width="30" height="30" viewBox="0 0 30 30" fill="none" xmlns="http://www.w3.org/2000/svg">
<g clip-path="url(#clip0_197_116)">
<path d="M25.6069 4.3935C19.7584 -1.45518 10.2422 -1.45518 4.3937 4.3935C-1.4548 10.2418 -1.4548 19.758 4.3937 25.6067C7.31795 28.5309 11.1591 29.9931 15.0002 29.9931C18.8413 29.9931 22.6826 28.5309 25.6069 25.6065C31.4552 19.758 31.4552 10.2418 25.6069 4.3935ZM24.2811 24.2809C19.1636 29.3983 10.837 29.3983 5.71951 24.2809C0.602074 19.1633 0.602074 10.8366 5.71951 5.71913C10.837 0.601692 19.1636 0.601692 24.2811 5.71913C29.3983 10.8366 29.3983 19.1633 24.2811 24.2809Z" fill="#A3A3A3"/>
<path d="M20.8217 9.1787C20.4556 8.81252 19.8621 8.81252 19.4959 9.1787L15.0004 13.6744L10.5049 9.1787C10.1387 8.81252 9.54512 8.81233 9.17912 9.1787C8.81294 9.5447 8.81294 10.1383 9.17912 10.5043L13.6746 15L9.17894 19.4957C8.81275 19.8617 8.81275 20.4553 9.17894 20.8213C9.36212 21.0045 9.60194 21.096 9.84194 21.096C10.0819 21.096 10.3217 21.0045 10.5049 20.8213L15.0004 16.3258L19.4959 20.8213C19.6791 21.0045 19.9189 21.096 20.1588 21.096C20.3988 21.096 20.6387 21.0045 20.8217 20.8213C21.1879 20.4553 21.1879 19.8617 20.8217 19.4957L16.3262 15L20.8219 10.5043C21.1879 10.1385 21.1879 9.54489 20.8217 9.1787Z" fill="#A3A3A3"/>
</g>
<defs>
<clipPath id="clip0_197_116">
<rect width="30" height="30" fill="white"/>
</clipPath>
</defs>
</svg>
