<svg width="20" height="24" viewBox="0 0 20 24" fill="none" xmlns="http://www.w3.org/2000/svg">
<path d="M14.2929 7.39697C14.2929 5.00166 12.3736 3.06104 10.0045 3.06104C7.63552 3.06104 5.71619 5.00166 5.71619 7.39697C5.71619 9.79228 7.63552 11.7329 10.0045 11.7329C12.3736 11.7329 14.2929 9.79228 14.2929 7.39697ZM8.13621 8.6251C7.92295 8.40947 7.92295 8.05791 8.13621 7.8376C8.34947 7.62197 8.69718 7.62197 8.91507 7.8376L9.45749 8.38603V5.0626C9.45749 4.75322 9.7032 4.50947 10.0092 4.50947C10.3152 4.50947 10.5609 4.75791 10.5609 5.0626V8.39072L11.1033 7.84229C11.3166 7.62666 11.6643 7.62666 11.8822 7.84229C12.1 8.05791 12.0954 8.40947 11.8822 8.62979L10.394 10.1251C10.2966 10.2235 10.1575 10.2892 10.0045 10.2892C9.85156 10.2892 9.71711 10.2282 9.61512 10.1251L8.13621 8.6251Z" fill="#0F57D1"/>
<path d="M16.1799 16.2563C15.8043 16.1297 15.3917 16.275 15.1692 16.6078L15.1599 16.6219C14.8493 17.0953 15.0487 17.7375 15.5725 17.9438C16.7316 18.4031 17.4316 19.0031 17.4316 19.6641C17.4316 21.0984 14.0983 22.2656 9.99999 22.2656C5.90171 22.2656 2.57302 21.0984 2.57302 19.6641C2.57302 19.0078 3.2777 18.4031 4.43208 17.9438C4.95596 17.7375 5.15994 17.0953 4.84469 16.6219C4.84005 16.6172 4.84005 16.6125 4.83542 16.6078C4.61752 16.275 4.20028 16.1297 3.82475 16.2563C1.49281 17.0484 0 18.2813 0 19.6641C0 22.0594 4.47844 24 9.99999 24C15.5215 24 20 22.0594 20 19.6641C20.0046 18.2813 18.5118 17.0484 16.1799 16.2563Z" fill="#0F57D1"/>
<path d="M11.1452 19.0922C13.1989 16.3453 17.3204 10.4625 17.3204 7.39688C17.3204 3.31406 14.0473 0 10.0047 0C5.96203 0 2.68896 3.31406 2.68896 7.39688C2.68896 10.4625 6.81043 16.35 8.86421 19.0922C9.43908 19.8562 10.5703 19.8562 11.1452 19.0922ZM4.3255 7.39688C4.3255 4.22344 6.86606 1.65469 10.0047 1.65469C13.1433 1.65469 15.6839 4.22344 15.6839 7.39688C15.6839 10.5703 13.1387 13.1391 10.0047 13.1391C6.8707 13.1391 4.3255 10.5656 4.3255 7.39688Z" fill="#0F57D1"/>
</svg>
