<svg width="18" height="18" viewBox="0 0 18 18" fill="none" xmlns="http://www.w3.org/2000/svg">
<g clip-path="url(#clip0_89_2026)">
<path d="M6.27046 15.4773H7.95474V12.1468H7.19804C6.91061 12.1468 6.6627 11.9544 6.5914 11.676C6.52692 11.4241 6.62351 11.1647 6.82904 11.0153V9.76817L7.5298 9.66011V10.6249L8.23957 10.236V9.54916L9.02919 9.42718V9.80337L9.5878 9.49732V0.947998L6.27046 2.36607V15.4773ZM9.02922 8.57214L8.2396 8.72076V7.28306L9.02922 7.08822V8.57214ZM9.02922 6.23321L8.2396 6.4547V5.01589L9.02922 4.74813V6.23321ZM9.02922 2.50221V3.89429L8.2396 4.18864L8.23938 2.84109L9.02922 2.50221ZM6.82907 3.44543L7.53026 3.14487L7.53003 4.45345L6.82904 4.71342L6.82907 3.44543ZM6.82907 5.49423L7.53006 5.25682V6.65516L6.82907 6.85153V5.49426V5.49423ZM6.82907 7.63016L7.53006 7.45739V8.85574L6.82907 8.98746V7.63019V7.63016ZM13.4901 2.44943V9.31424L12.1902 8.60204C11.8831 8.43376 11.5289 8.43376 11.2218 8.60204L9.9778 9.28363V0.947998L13.4901 2.44943ZM2.61522 6.34232V15.4773H5.88046V4.94651L2.61522 6.34232ZM4.01009 13.2512H3.44007V12.1575L4.01022 12.1019L4.01009 13.2512ZM4.01041 11.4479L3.44007 11.526V10.4282L4.01041 10.311V11.4479ZM4.01041 9.65842L3.44007 9.79869V8.70081L4.01041 8.52151V9.65842ZM4.01061 7.86826L3.4401 8.06998V7.04461L4.0108 6.80424L4.01061 7.86826ZM5.25068 13.2512H4.59382V12.0446L5.25068 11.9804V13.2512ZM5.25068 11.2767L4.59382 11.3672V10.1915L5.25068 10.0559V11.2767ZM5.25068 9.3522L4.59382 9.51402V8.33756L5.25068 8.12998V9.3522ZM5.25068 7.427L4.59362 7.66087V6.55912L5.25068 6.2807V7.427ZM16.3275 11.3135L12.0029 8.94407C11.8125 8.83975 11.5997 8.83975 11.4092 8.94407L7.08459 11.3135C6.98871 11.3661 6.94214 11.4734 6.96928 11.5793C6.99638 11.6852 7.08878 11.7569 7.19811 11.7569H8.34481V15.4773H9.22156V13.1566H8.978C8.8703 13.1566 8.783 13.0693 8.783 12.9616C8.783 12.8539 8.8703 12.7666 8.978 12.7666H11.1423C11.25 12.7666 11.3373 12.8539 11.3373 12.9616C11.3373 13.0693 11.25 13.1566 11.1423 13.1566H10.8988V15.4773H15.0674V11.7569H16.214C16.3234 11.7569 16.4158 11.6852 16.4429 11.5793C16.47 11.4734 16.4234 11.3661 16.3275 11.3135ZM11.0956 10.494C11.0956 10.1569 11.3689 9.88355 11.7061 9.88355C12.0432 9.88355 12.3165 10.1569 12.3165 10.494C12.3165 10.8312 12.0432 11.1045 11.7061 11.1045C11.3689 11.1045 11.0956 10.8312 11.0956 10.494ZM12.9408 12.7H12.0811V11.7569H12.9408V12.7ZM14.1905 12.7H13.3308V11.7569H14.1905V12.7ZM1.5498 16.5457V16.1113C1.5498 15.9771 1.65959 15.8673 1.79375 15.8673H15.9135C16.0477 15.8673 16.1574 15.9771 16.1574 16.1113V16.5457C16.1574 16.6799 16.0477 16.7897 15.9135 16.7897H1.79375C1.65959 16.7897 1.5498 16.6799 1.5498 16.5457Z" fill="#0F57D1"/>
</g>
<defs>
<clipPath id="clip0_89_2026">
<rect width="16.64" height="16.64" fill="white" transform="translate(0.679688 0.548828)"/>
</clipPath>
</defs>
</svg>
