<svg width="18" height="18" viewBox="0 0 18 18" fill="none" xmlns="http://www.w3.org/2000/svg">
<g clip-path="url(#clip0_89_1831)">
<path d="M0.679688 16.5563C0.679688 16.903 0.957021 17.1803 1.30369 17.1803H3.24502C3.52235 17.111 3.79969 16.8336 3.79969 16.5563V15.031C3.79969 14.6843 3.52235 14.407 3.17569 14.407H1.30369C0.957021 14.407 0.679688 14.6843 0.679688 15.031V16.5563Z" fill="#0F57D1"/>
<path d="M7.6824 17.1109C8.02907 17.1109 8.3064 16.8336 8.3064 16.4869V12.8816C8.3064 12.5349 8.02907 12.2576 7.6824 12.2576H5.74107C5.3944 12.2576 5.11707 12.5349 5.11707 12.8816V16.5562C5.11707 16.9029 5.3944 17.1802 5.74107 17.1802H7.6824V17.1109Z" fill="#0F57D1"/>
<path d="M10.248 17.1108H12.1894C12.536 17.1108 12.8134 16.8335 12.8134 16.4868V10.8708C12.8134 10.5242 12.536 10.2468 12.1894 10.2468H10.248C9.90136 10.2468 9.62402 10.5242 9.62402 10.8708V16.5562C9.69336 16.8335 9.97069 17.1108 10.248 17.1108Z" fill="#0F57D1"/>
<path d="M17.3192 7.47361C17.3192 7.12694 17.0419 6.84961 16.6952 6.84961H14.7539C14.4072 6.84961 14.1299 7.12694 14.1299 7.47361V16.4869C14.1299 16.8336 14.4072 17.1109 14.7539 17.1109H16.6952C17.0419 17.1109 17.3192 16.8336 17.3192 16.4869V7.47361Z" fill="#0F57D1"/>
<path d="M14.6157 4.63089C14.7544 4.76956 14.8931 4.76955 15.0317 4.76955C15.1011 4.76955 15.2397 4.76956 15.3091 4.70022C15.5864 4.63089 15.7944 4.35355 15.7944 4.07622L15.9331 2.20422C15.9331 1.92689 15.7944 1.71889 15.6557 1.58022C15.4477 1.44155 15.1704 1.37222 14.9624 1.51089L13.2291 2.13489C12.9517 2.20422 12.8131 2.48155 12.7437 2.75889C12.6744 3.03622 12.8131 3.31355 13.0211 3.45222L13.2984 3.66022C10.9411 6.43356 6.50373 9.48422 2.62107 9.48422C2.20507 9.48422 1.92773 9.76156 1.92773 10.1776C1.92773 10.5936 2.20507 10.8709 2.62107 10.8709C6.98907 10.8709 11.8424 7.54289 14.4077 4.42289L14.6157 4.63089Z" fill="#0F57D1"/>
</g>
<defs>
<clipPath id="clip0_89_1831">
<rect width="17.3333" height="17.3333" fill="white" transform="translate(0.333008 0.609619)"/>
</clipPath>
</defs>
</svg>
