<svg width="18" height="18" viewBox="0 0 18 18" fill="none" xmlns="http://www.w3.org/2000/svg">
<g clip-path="url(#clip0_89_1841)">
<path d="M10.8392 8.0507H15.3915H16.2753C16.4086 8.0507 16.5191 7.94022 16.5191 7.807V6.71196C16.5191 6.57874 16.4086 6.46826 16.2753 6.46826H10.8392C10.7059 6.46826 10.5955 6.57874 10.5955 6.71196V7.807C10.5955 7.94347 10.7059 8.0507 10.8392 8.0507Z" fill="#0F57D1"/>
<path d="M3.51151 10.1043H6.3352C7.59921 10.1043 8.62601 9.07751 8.62601 7.81351C8.62601 6.5495 7.59921 5.52271 6.3352 5.52271H3.51151C2.2475 5.52271 1.2207 6.5495 1.2207 7.81351C1.2207 9.07751 2.2475 10.1043 3.51151 10.1043ZM5.77631 6.94918C5.70483 6.84195 5.73082 6.69248 5.8413 6.62099C5.94853 6.5495 6.098 6.5755 6.16949 6.68598L6.64389 7.39109L7.1183 6.68598C7.18979 6.57875 7.33926 6.5495 7.44649 6.62099C7.55372 6.69248 7.58296 6.84195 7.51148 6.94918L6.92984 7.81351L7.51148 8.67784C7.58296 8.78507 7.55697 8.93454 7.44649 9.00602C7.4075 9.03202 7.35875 9.04502 7.31651 9.04502C7.24178 9.04502 7.16704 9.00927 7.12155 8.94104L6.64714 8.23593L6.17274 8.94104C6.12725 9.00927 6.05251 9.04502 5.97777 9.04502C5.93228 9.04502 5.88679 9.03202 5.8478 9.00602C5.74057 8.93454 5.71133 8.78507 5.78281 8.67784L6.36445 7.81351L5.77631 6.94918ZM4.62604 6.582C4.72352 6.582 4.81125 6.64049 4.84699 6.73147L5.35065 8.00847L5.62034 8.69409C5.66908 8.81431 5.60735 8.95404 5.48712 8.99953C5.36689 9.04827 5.22717 8.98653 5.18168 8.8663L4.97047 8.33341H4.28161L4.06065 8.8923C4.02491 8.98653 3.93392 9.04177 3.83969 9.04177C3.81045 9.04177 3.7812 9.03527 3.75196 9.02552C3.63173 8.97678 3.56999 8.84031 3.61873 8.72008L4.40508 6.72822C4.44082 6.64049 4.52856 6.582 4.62604 6.582ZM2.53345 6.582H3.72271C3.85269 6.582 3.95992 6.68923 3.95992 6.8192C3.95992 6.94918 3.85269 7.05641 3.72271 7.05641H3.36528V8.81106C3.36528 8.94104 3.25806 9.04827 3.12808 9.04827C2.99811 9.04827 2.89088 8.94104 2.89088 8.81106V7.05641H2.53345C2.40347 7.05641 2.29624 6.94918 2.29624 6.8192C2.29624 6.68923 2.40347 6.582 2.53345 6.582Z" fill="#0F57D1"/>
<path d="M11.0955 12.1579H15.9631C16.0963 12.1579 16.2068 12.0474 16.2068 11.9142V10.8191C16.2068 10.6859 16.0963 10.5754 15.9631 10.5754H15.3945H10.5269C10.3937 10.5754 10.2832 10.6859 10.2832 10.8191V11.9142C10.2832 12.0474 10.3937 12.1579 10.5269 12.1579H11.0955Z" fill="#0F57D1"/>
<path d="M13.5586 4.93116C14.4554 4.93116 15.1865 4.20005 15.1865 3.30323C15.1865 2.4064 14.4554 1.67529 13.5586 1.67529C12.6618 1.67529 11.9307 2.4064 11.9307 3.30323C11.9307 4.20005 12.6618 4.93116 13.5586 4.93116ZM14.0655 4.04733C13.9355 4.04733 13.8283 3.9401 13.8283 3.81013C13.8283 3.68015 13.9355 3.57292 14.0655 3.57292C14.1955 3.57292 14.3027 3.68015 14.3027 3.81013C14.3027 3.9401 14.1955 4.04733 14.0655 4.04733ZM13.0517 2.55912C13.1817 2.55912 13.2889 2.66635 13.2889 2.79632C13.2889 2.9263 13.1817 3.03353 13.0517 3.03353C12.9217 3.03353 12.8145 2.9263 12.8145 2.79632C12.8145 2.66635 12.9217 2.55912 13.0517 2.55912ZM12.6553 3.87186L14.1272 2.3999C14.2182 2.30892 14.3677 2.30892 14.4619 2.3999C14.5529 2.49088 14.5529 2.64035 14.4619 2.73459L12.99 4.20655C12.9445 4.25204 12.8827 4.27479 12.8242 4.27479C12.7625 4.27479 12.704 4.25204 12.6585 4.20655C12.5643 4.11557 12.5643 3.9661 12.6553 3.87186Z" fill="#0F57D1"/>
<path d="M13.559 5.99707C15.0439 5.99707 16.2527 4.7883 16.2527 3.30334C16.2527 1.81838 15.0439 0.609619 13.559 0.609619C12.074 0.609619 10.8652 1.81838 10.8652 3.30334C10.8652 4.7883 12.074 5.99707 13.559 5.99707ZM13.559 1.20425C14.7157 1.20425 15.658 2.14657 15.658 3.30334C15.658 4.46012 14.7157 5.40243 13.559 5.40243C12.4022 5.40243 11.4599 4.46012 11.4599 3.30334C11.4599 2.14657 12.4022 1.20425 13.559 1.20425Z" fill="#0F57D1"/>
<path d="M4.62602 7.46265L4.4668 7.86557H4.78523L4.62602 7.46265Z" fill="#0F57D1"/>
<path d="M7.64174 12.6323H3.02764C2.89441 12.6323 2.78394 12.7428 2.78394 12.876V13.9711C2.78394 14.1043 2.89441 14.2148 3.02764 14.2148H8.05441H8.46383C8.59705 14.2148 8.70753 14.1043 8.70753 13.9711V12.876C8.70753 12.7428 8.59705 12.6323 8.46383 12.6323H7.64174Z" fill="#0F57D1"/>
<path d="M10.001 14.9295V16.0245C10.001 16.1578 10.1115 16.2682 10.2447 16.2682H15.6809C15.8141 16.2682 15.9246 16.1578 15.9246 16.0245V14.9295C15.9246 14.7963 15.8141 14.6858 15.6809 14.6858H11.096H10.2479C10.1115 14.6858 10.001 14.793 10.001 14.9295Z" fill="#0F57D1"/>
<path d="M9.95562 10.1042H10.5243H15.3918C15.525 10.1042 15.6355 9.99369 15.6355 9.86047V8.76543C15.6355 8.63221 15.525 8.52173 15.3918 8.52173H10.8394H9.95562C9.82239 8.52173 9.71191 8.63221 9.71191 8.76543V9.86047C9.71191 9.99694 9.82239 10.1042 9.95562 10.1042Z" fill="#0F57D1"/>
<path d="M11.0962 12.6323C10.963 12.6323 10.8525 12.7428 10.8525 12.876V13.9711C10.8525 14.1043 10.963 14.2148 11.0962 14.2148H15.6843H16.5324C16.6657 14.2148 16.7761 14.1043 16.7761 13.9711V12.876C16.7761 12.7428 16.6657 12.6323 16.5324 12.6323H15.9638H11.0962Z" fill="#0F57D1"/>
<path d="M2.6187 16.2651H8.05489C8.18811 16.2651 8.29859 16.1546 8.29859 16.0214V14.9263C8.29859 14.7931 8.18811 14.6826 8.05489 14.6826H3.02812H2.6187C2.48548 14.6826 2.375 14.7931 2.375 14.9263V16.0214C2.375 16.1578 2.48223 16.2651 2.6187 16.2651Z" fill="#0F57D1"/>
<path d="M7.64181 12.1579C7.77503 12.1579 7.88551 12.0474 7.88551 11.9142V10.8191C7.88551 10.6859 7.77503 10.5754 7.64181 10.5754H6.33556H3.51186H2.20562C2.07239 10.5754 1.96191 10.6859 1.96191 10.8191V11.9142C1.96191 12.0474 2.07239 12.1579 2.20562 12.1579H3.02771H7.64181Z" fill="#0F57D1"/>
<path d="M17.0585 16.7751H0.938376C0.808401 16.7751 0.701172 16.8824 0.701172 17.0123C0.701172 17.1423 0.808401 17.2496 0.938376 17.2496H17.0617C17.1917 17.2496 17.2989 17.1423 17.2989 17.0123C17.2957 16.8791 17.1917 16.7751 17.0585 16.7751Z" fill="#0F57D1"/>
</g>
<defs>
<clipPath id="clip0_89_1841">
<rect width="16.64" height="16.64" fill="white" transform="translate(0.679688 0.609619)"/>
</clipPath>
</defs>
</svg>
