<svg width="18" height="18" viewBox="0 0 18 18" fill="none" xmlns="http://www.w3.org/2000/svg">
<g clip-path="url(#clip0_89_1860)">
<path d="M12.3277 10.3158H10.6637C10.2042 10.3158 9.8317 10.6883 9.8317 11.1478V14.7532H2.06636C1.4537 14.7532 0.957031 14.2565 0.957031 13.6438V7.81982H11.4402L11.3182 8.12489C11.2839 8.20918 11.2724 8.301 11.2849 8.39113C11.2918 8.46709 11.3144 8.54078 11.3515 8.60745L12.3277 10.3158Z" fill="#A4C2F7"/>
<path d="M11.773 1.99605V7.13504C11.7127 7.19172 11.6654 7.26079 11.6344 7.33749L11.4402 7.82005H0.957031V1.99605C0.957031 1.38338 1.4537 0.886719 2.06636 0.886719H10.6637C11.2764 0.886719 11.773 1.38338 11.773 1.99605Z" fill="#E8EDFC"/>
<path d="M6.78108 9.7612V12.8119C6.78211 13.1683 6.55382 13.485 6.21532 13.5967C6.12139 12.6779 5.34731 11.9793 4.42374 11.9799C4.81634 11.9799 5.17028 11.7434 5.32052 11.3807C5.47076 11.0179 5.38772 10.6004 5.11011 10.3228C4.8325 10.0452 4.415 9.96218 4.05228 10.1124C3.68957 10.2627 3.45308 10.6166 3.45308 11.0092C3.45308 11.5453 3.88766 11.9799 4.42374 11.9799C3.50018 11.9793 2.72609 12.6779 2.63217 13.5967C2.29367 13.485 2.06537 13.1683 2.06641 12.8119V9.7612C2.06641 9.3017 2.43891 8.9292 2.89841 8.9292H5.94908C6.40858 8.9292 6.78108 9.3017 6.78108 9.7612Z" fill="#E8EDFC"/>
<path d="M3.59174 11.98C2.97242 11.9792 2.39621 12.2969 2.06641 12.8211C2.06857 13.1744 2.2959 13.4869 2.63133 13.5977C2.70948 12.8354 3.26193 12.2062 4.00774 12.0302C3.8715 11.9973 3.73189 11.9805 3.59174 11.98Z" fill="#CAD9FC"/>
<path d="M3.45309 11.0092C3.45451 10.6356 3.67021 10.296 4.00776 10.1359C3.87816 10.0727 3.73598 10.0394 3.59176 10.0386C3.05568 10.0386 2.62109 10.4732 2.62109 11.0092C2.62109 11.5453 3.05568 11.9799 3.59176 11.9799C3.73598 11.9791 3.87816 11.9458 4.00776 11.8826C3.67021 11.7225 3.45451 11.3828 3.45309 11.0092Z" fill="#CAD9FC"/>
<path d="M5.94919 8.9292H5.11719C5.57669 8.9292 5.94919 9.3017 5.94919 9.7612V12.8119V12.821C6.09721 13.0557 6.18864 13.3215 6.21626 13.5976C6.55473 13.4855 6.7827 13.1684 6.78119 12.8119V9.7612C6.78119 9.3017 6.40869 8.9292 5.94919 8.9292Z" fill="#CAD9FC"/>
<path d="M4.42379 11.9799C4.95988 11.9799 5.39446 11.5453 5.39446 11.0092C5.39446 10.4732 4.95988 10.0386 4.42379 10.0386C3.88771 10.0386 3.45312 10.4732 3.45312 11.0092C3.45312 11.5453 3.88771 11.9799 4.42379 11.9799Z" fill="#E8EDFC"/>
<path d="M6.21498 13.5969C6.12972 13.6283 6.03958 13.6442 5.94874 13.6441H2.89808C2.80724 13.6442 2.7171 13.6283 2.63184 13.5969C2.7262 12.6784 3.50001 11.98 4.42341 11.98C5.34681 11.98 6.12062 12.6784 6.21498 13.5969Z" fill="#E8EDFC"/>
<path d="M4.42381 11.98C4.28367 11.9805 4.14406 11.9973 4.00781 12.0302C4.75303 12.2064 5.30502 12.8351 5.38339 13.5968C5.29813 13.6282 5.20798 13.6441 5.11715 13.644H5.94915C6.03998 13.6441 6.13013 13.6282 6.21539 13.5968C6.12146 12.6781 5.34738 11.9795 4.42381 11.98Z" fill="#CAD9FC"/>
<path d="M16.488 11.1484V15.8631H15.3787V11.4257H10.9414V15.8631H9.83203V11.1484C9.83203 10.6889 10.2045 10.3164 10.664 10.3164H15.656C16.1155 10.3164 16.488 10.6889 16.488 11.1484Z" fill="#E8EDFC"/>
<path d="M17.0427 16.4175C17.0404 16.7229 16.7934 16.9699 16.488 16.9721H9.83201C9.52606 16.9712 9.27826 16.7234 9.27734 16.4175C9.27961 16.1121 9.52662 15.8651 9.83201 15.8628H16.488C16.794 15.8637 17.0418 16.1115 17.0427 16.4175Z" fill="#E8EDFC"/>
<path d="M16.4873 15.8628H15.6553C15.9612 15.8637 16.209 16.1115 16.2099 16.4175C16.2077 16.7229 15.9607 16.9699 15.6553 16.9721H16.4873C16.7927 16.9699 17.0397 16.7229 17.0419 16.4175C17.041 16.1115 16.7932 15.8637 16.4873 15.8628Z" fill="#CAD9FC"/>
<path d="M15.0345 8.39115C15.0276 8.46712 15.0049 8.5408 14.9679 8.60747L13.9917 10.3158H12.3277L11.3515 8.60747C11.3144 8.5408 11.2917 8.46712 11.2849 8.39115L11.4957 8.37451H14.8237L15.0345 8.39115Z" fill="#CAD9FC"/>
<path d="M15.0347 8.39159L14.8239 8.37495H11.4959L11.2852 8.39159C11.2727 8.30146 11.2842 8.20963 11.3184 8.12535L11.4405 7.82028L11.6346 7.33772C11.6657 7.26102 11.713 7.19195 11.7733 7.13527C11.8753 7.04115 12.0089 6.98871 12.1477 6.98828H14.1722C14.3985 6.98919 14.6015 7.12749 14.6853 7.33772L15.0014 8.12535C15.0357 8.20963 15.0472 8.30146 15.0347 8.39159Z" fill="#E8EDFC"/>
<path d="M11.2845 8.39164L11.4952 8.375H11.2845C11.285 8.38055 11.2836 8.38609 11.2845 8.39164Z" fill="#CAD9FC"/>
<path d="M15.0011 8.12535L14.6849 7.33772C14.6012 7.12749 14.3981 6.98919 14.1718 6.98828H13.3398C13.5661 6.98919 13.7692 7.12749 13.8529 7.33772L14.1691 8.12535C14.2005 8.20456 14.2119 8.29028 14.2023 8.37495H14.8236L15.0343 8.39159C15.0468 8.30146 15.0354 8.20963 15.0011 8.12535Z" fill="#CAD9FC"/>
<path d="M12.6055 11.4253H13.7148V13.3666H12.6055V11.4253Z" fill="#A4C2F7"/>
<path d="M10.9414 13.3667H15.3787V14.7534H10.9414V13.3667Z" fill="#A4C2F7"/>
<path d="M14.5459 13.3667H15.3779V14.7534H14.5459V13.3667Z" fill="#7FACFA"/>
<path d="M2.06636 14.7534H2.89836C2.2857 14.7534 1.78903 14.2567 1.78903 13.6441V1.99605C1.78903 1.38338 2.2857 0.886719 2.89836 0.886719H2.06636C1.4537 0.886719 0.957031 1.38338 0.957031 1.99605V13.6441C0.957031 14.2567 1.4537 14.7534 2.06636 14.7534Z" fill="white"/>
<path d="M0.679688 1.99609H1.23435V4.21476H0.679688V1.99609Z" fill="white"/>
<path d="M0.962317 3.38279C0.80915 3.38356 0.684363 3.26001 0.683597 3.10685C0.682831 2.95368 0.806377 2.82889 0.959544 2.82812H0.962317C1.11548 2.82812 1.23965 2.95229 1.23965 3.10546C1.23965 3.25863 1.11548 3.38279 0.962317 3.38279Z" fill="#0F57D1"/>
<path d="M0.957021 2.27337C1.11019 2.27337 1.23435 2.14921 1.23435 1.99604C1.23435 1.53654 1.60685 1.16404 2.06635 1.16404H10.6637C11.1232 1.16404 11.4957 1.53654 11.4957 1.99604V5.87871C11.4957 6.03188 11.6199 6.15604 11.773 6.15604C11.9262 6.15604 12.0504 6.03188 12.0504 5.87871V1.99604C12.0494 1.23059 11.4291 0.610292 10.6637 0.609375H2.06635C1.3009 0.610292 0.680604 1.23059 0.679688 1.99604C0.679688 2.14921 0.803854 2.27337 0.957021 2.27337Z" fill="#0F57D1"/>
<path d="M2.06635 15.0308H8.72235C8.87552 15.0308 8.99969 14.9067 8.99969 14.7535C8.99969 14.6003 8.87552 14.4762 8.72235 14.4762H2.06635C1.60685 14.4762 1.23435 14.1037 1.23435 13.6442V8.0975H10.2033C10.3565 8.0975 10.4806 7.97333 10.4806 7.82017C10.4806 7.667 10.3565 7.54283 10.2033 7.54283H1.23435V4.21483C1.23435 4.06167 1.11019 3.9375 0.957021 3.9375C0.803854 3.9375 0.679688 4.06167 0.679688 4.21483V13.6442C0.680604 14.4096 1.3009 15.0299 2.06635 15.0308Z" fill="#0F57D1"/>
<path d="M2.8984 8.65186C2.28573 8.65186 1.78906 9.14852 1.78906 9.76119V12.8119C1.78906 13.4245 2.28573 13.9212 2.8984 13.9212H5.94906C6.56173 13.9212 7.0584 13.4245 7.0584 12.8119V9.76119C7.0584 9.14852 6.56173 8.65186 5.94906 8.65186H2.8984ZM3.7304 11.0092C3.7304 10.6263 4.04081 10.3159 4.42373 10.3159C4.80665 10.3159 5.11706 10.6263 5.11706 11.0092C5.11706 11.3921 4.80665 11.7025 4.42373 11.7025C4.04081 11.7025 3.7304 11.3921 3.7304 11.0092ZM2.95858 13.3665C3.14356 12.7105 3.7421 12.2574 4.42373 12.2574C5.10536 12.2574 5.7039 12.7105 5.88888 13.3665H2.95858ZM6.50373 9.76119V12.8119C6.50348 12.9277 6.4667 13.0404 6.39862 13.1341C6.22106 12.5865 5.82284 12.1379 5.3001 11.8967C5.66059 11.5411 5.77052 11.003 5.57837 10.5345C5.38621 10.0661 4.93006 9.76013 4.42373 9.76013C3.9174 9.76013 3.46124 10.0661 3.26909 10.5345C3.07694 11.003 3.18687 11.5411 3.54736 11.8967C3.0245 12.138 2.62626 12.5868 2.44884 13.1347C2.38065 13.0408 2.34386 12.9279 2.34373 12.8119V9.76119C2.34373 9.45485 2.59206 9.20652 2.8984 9.20652H5.94906C6.2554 9.20652 6.50373 9.45485 6.50373 9.76119Z" fill="#0F57D1"/>
<path d="M16.765 15.6366V11.1483C16.765 10.5356 16.2684 10.0389 15.6557 10.0389H14.4696L15.2089 8.7449C15.3354 8.52497 15.3539 8.25917 15.2591 8.02384L14.9435 7.23455C14.8182 6.91772 14.5116 6.70997 14.1709 6.71094H12.1486C11.808 6.70988 11.5014 6.91739 11.3759 7.23399L11.0603 8.02328C10.9655 8.25862 10.9841 8.52442 11.1105 8.74435L11.8499 10.0389H10.6637C10.051 10.0389 9.55438 10.5356 9.55438 11.1483V15.6366C9.17261 15.7711 8.9435 16.1613 9.01208 16.5602C9.08067 16.9591 9.42696 17.2504 9.83171 17.2496H16.4877C16.8925 17.2504 17.2388 16.9591 17.3073 16.5602C17.3759 16.1613 17.1468 15.7711 16.765 15.6366ZM12.1486 7.26561H14.1709C14.2844 7.26522 14.3865 7.33446 14.4282 7.44005L14.6914 8.09761H11.628L11.8912 7.44005C11.9329 7.33446 12.035 7.26522 12.1486 7.26561ZM11.6962 8.65228H14.6232L13.8309 10.0389H12.4886L11.6962 8.65228ZM10.109 11.1483C10.109 10.8419 10.3574 10.5936 10.6637 10.5936H15.6557C15.962 10.5936 16.2104 10.8419 16.2104 11.1483V15.5856H15.6557V11.4256C15.6557 11.2724 15.5315 11.1483 15.3784 11.1483H10.941C10.7879 11.1483 10.6637 11.2724 10.6637 11.4256V15.5856H10.109V11.1483ZM11.2184 15.5856V15.0309H15.101V15.5856H11.2184ZM15.101 11.7029V13.0896H13.9917V11.7029H15.101ZM12.605 13.6443H15.101V14.4763H11.2184V13.6443H12.605ZM13.437 13.0896H12.8824V11.7029H13.437V13.0896ZM12.3277 13.0896H11.2184V11.7029H12.3277V13.0896ZM16.4877 16.6949H9.83171C9.67854 16.6949 9.55438 16.5708 9.55438 16.4176C9.55438 16.2644 9.67854 16.1403 9.83171 16.1403H16.4877C16.6409 16.1403 16.765 16.2644 16.765 16.4176C16.765 16.5708 16.6409 16.6949 16.4877 16.6949Z" fill="#0F57D1"/>
<path d="M10.3863 1.99609H7.05834C6.90517 1.99609 6.78101 2.12026 6.78101 2.27343C6.78101 2.42659 6.90517 2.55076 7.05834 2.55076H10.3863C10.5395 2.55076 10.6637 2.42659 10.6637 2.27343C10.6637 2.12026 10.5395 1.99609 10.3863 1.99609Z" fill="#0F57D1"/>
<path d="M10.3863 3.38281H7.05834C6.90517 3.38281 6.78101 3.50698 6.78101 3.66015C6.78101 3.81331 6.90517 3.93748 7.05834 3.93748H10.3863C10.5395 3.93748 10.6637 3.81331 10.6637 3.66015C10.6637 3.50698 10.5395 3.38281 10.3863 3.38281Z" fill="#0F57D1"/>
<path d="M10.6637 5.04686C10.6637 4.8937 10.5395 4.76953 10.3863 4.76953H7.05834C6.90517 4.76953 6.78101 4.8937 6.78101 5.04686C6.78101 5.20003 6.90517 5.3242 7.05834 5.3242H10.3863C10.5395 5.3242 10.6637 5.20003 10.6637 5.04686Z" fill="#0F57D1"/>
<path d="M7.05834 6.15625C6.90517 6.15625 6.78101 6.28042 6.78101 6.43358C6.78101 6.58675 6.90517 6.71092 7.05834 6.71092H8.72234C8.87551 6.71092 8.99967 6.58675 8.99967 6.43358C8.99967 6.28042 8.87551 6.15625 8.72234 6.15625H7.05834Z" fill="#0F57D1"/>
<path d="M5.67174 1.99609H2.34374C2.19057 1.99609 2.06641 2.12026 2.06641 2.27343C2.06641 2.42659 2.19057 2.55076 2.34374 2.55076H5.67174C5.82491 2.55076 5.94907 2.42659 5.94907 2.27343C5.94907 2.12026 5.82491 1.99609 5.67174 1.99609Z" fill="#0F57D1"/>
<path d="M5.67174 3.38281H2.34374C2.19057 3.38281 2.06641 3.50698 2.06641 3.66015C2.06641 3.81331 2.19057 3.93748 2.34374 3.93748H5.67174C5.82491 3.93748 5.94907 3.81331 5.94907 3.66015C5.94907 3.50698 5.82491 3.38281 5.67174 3.38281Z" fill="#0F57D1"/>
<path d="M5.67174 6.15625H2.34374C2.19057 6.15625 2.06641 6.28042 2.06641 6.43358C2.06641 6.58675 2.19057 6.71092 2.34374 6.71092H5.67174C5.82491 6.71092 5.94907 6.58675 5.94907 6.43358C5.94907 6.28042 5.82491 6.15625 5.67174 6.15625Z" fill="#0F57D1"/>
</g>
<defs>
<clipPath id="clip0_89_1860">
<rect width="16.64" height="16.64" fill="white" transform="translate(0.679688 0.609375)"/>
</clipPath>
</defs>
</svg>
