<svg width="40" height="40" viewBox="0 0 40 40" fill="none" xmlns="http://www.w3.org/2000/svg">
<g clip-path="url(#clip0_253_1570)">
<path d="M29.1786 23.845L29.1636 23.97C25.4986 22.1433 25.1152 21.9 24.6419 22.61C24.3136 23.1017 23.3569 24.2167 23.0686 24.5467C22.7769 24.8717 22.4869 24.8967 21.9919 24.6717C21.4919 24.4217 19.8869 23.8967 17.9869 22.1967C16.5069 20.8717 15.5136 19.2467 15.2202 18.7467C14.7319 17.9033 15.7536 17.7833 16.6836 16.0233C16.8502 15.6733 16.7652 15.3983 16.6419 15.15C16.5169 14.9 15.5219 12.45 15.1052 11.4733C14.7052 10.5 14.2936 10.6233 13.9852 10.6233C13.0252 10.54 12.3236 10.5533 11.7052 11.1967C9.01523 14.1533 9.69356 17.2033 11.9952 20.4467C16.5186 26.3667 18.9286 27.4567 23.3352 28.97C24.5252 29.3483 25.6102 29.295 26.4686 29.1717C27.4252 29.02 29.4136 27.97 29.8286 26.795C30.2536 25.62 30.2536 24.645 30.1286 24.42C30.0052 24.195 29.6786 24.07 29.1786 23.845Z" fill="black"/>
<path d="M34.2 5.74834C21.385 -6.64 0.176667 2.345 0.168333 19.8217C0.168333 23.315 1.08333 26.7217 2.82667 29.73L0 40L10.5583 37.2467C23.7333 44.3633 39.9933 34.9133 40 19.8317C40 14.5383 37.9333 9.55667 34.175 5.81334L34.2 5.74834ZM36.67 19.7767C36.66 32.4983 22.695 40.4433 11.65 33.95L11.05 33.5933L4.8 35.2183L6.475 29.1433L6.07667 28.5183C-0.796667 17.5767 7.1 3.27667 20.12 3.27667C24.5433 3.27667 28.695 5.00167 31.8217 8.12667C34.9467 11.225 36.67 15.3767 36.67 19.7767Z" fill="black"/>
</g>
<defs>
<clipPath id="clip0_253_1570">
<rect width="40" height="40" fill="white"/>
</clipPath>
</defs>
</svg>
